<svg version="1.1" id="Layer_1" xmlns="http://www.w3.org/2000/svg" xmlns:xlink="http://www.w3.org/1999/xlink" x="0px" y="0px" viewBox="0 0 500 500" style="width: 144px;" xml:space="preserve" data-imageid="under-constructions-31" imageName="Under Constructions" class="illustrations_image">
<style type="text/css">
	.st0_under-constructions-31{fill:#FFC9B0;}
	.st1_under-constructions-31{fill:#093F68;}
	.st2_under-constructions-31{fill:#68E1FD;}
	.st3_under-constructions-31{fill:#725858;}
	.st4_under-constructions-31{fill:#FFFFFF;}
	.st5_under-constructions-31{fill:#FFBC0E;}
	.st6_under-constructions-31{fill:#F56132;}
	.st7_under-constructions-31{fill:none;}
</style>
<g id="character_under-constructions-31">
	<polygon class="st0_under-constructions-31" points="136.2,228.6 155.4,240.1 142.3,256.4 123.9,246.1 &#9;"/>
	<path class="st1_under-constructions-31" d="M142.3,258.4c-0.4,0-0.7-0.1-1-0.3l-18.4-10.3c-0.5-0.3-0.9-0.8-1-1.4c-0.1-0.6,0-1.2,0.3-1.7l12.4-17.4&#10;&#9;&#9;c0.6-0.9,1.8-1.1,2.8-0.6l19.2,11.5c0.5,0.3,0.9,0.8,1,1.4c0.1,0.6,0,1.2-0.4,1.7l-13.2,16.2C143.5,258.2,142.9,258.4,142.3,258.4z&#10;&#9;&#9; M126.9,245.4l14.8,8.3l10.5-13l-15.4-9.2L126.9,245.4z"/>
	<path class="st0_under-constructions-31" d="M276.6,305.9l8.8,15c0,0,5.4,8.4,5.7,13.6s-1.3,14-13.8,17.8c-12.2,3.7-21.2-40.9-21.2-40.9L276.6,305.9z"/>
	<path class="st1_under-constructions-31" d="M275.9,354.6c-1.4,0-2.8-0.4-4-1.2c-10.4-6.2-17.1-38-17.8-41.6c-0.2-1.1,0.4-2.1,1.5-2.4l20.5-5.5&#10;&#9;&#9;c0.9-0.2,1.9,0.2,2.3,1l8.8,15c0.2,0.3,5.7,8.8,6,14.6c0.3,5.6-1.3,15.6-15.3,19.9C277.3,354.5,276.6,354.6,275.9,354.6z&#10;&#9;&#9; M258.6,312.9c2.3,10.4,8.4,32.8,15.5,37c0.8,0.5,1.8,0.7,2.7,0.5c10.7-3.3,12.6-10.3,12.4-15.7c-0.2-3.9-4-10.4-5.4-12.6&#10;&#9;&#9;l-8.1-13.7L258.6,312.9z"/>
	<path class="st2_under-constructions-31 targetColor" d="M218.1,319.5l0.5-27.4l-48.9-5.1c0-0.8,0-1.6-0.1-2.4l-18,0.5l-1-0.1v0.1l-9.4,8.6c1,33.5,0.4,65.2-0.7,72.3&#10;&#9;&#9;c-2.2,6-17.8,26.7-31.1,42.7l22.5,18.8c15.6-18.6,34.6-43.3,37.2-55c1.3-6,1.6-24.5,1.4-43.8l21,1c0,0,19,31.8,24.5,39.5&#10;&#9;&#9;c-3.1,8.5-10.9,27.3-17.8,43.2l26.8,11.6c7.2-16.7,19.6-45.7,21-53C247.2,364.7,255.2,357.3,218.1,319.5z" style="fill: rgb(104, 225, 253);"/>
	<path class="st1_under-constructions-31" d="M132,429.5c-0.5,0-1-0.2-1.3-0.5l-22.5-18.8c-0.9-0.7-1-2-0.3-2.9c0,0,0,0,0,0c14.3-17.1,28.5-36.5,30.7-41.9&#10;&#9;&#9;c1.1-7.4,1.6-39.3,0.7-71.7c0-0.6,0.2-1.2,0.7-1.6l9.1-8.4c0.1-0.1,0.2-0.2,0.3-0.3c0.4-0.4,1-0.6,1.6-0.6l0.8,0.1l17.9-0.5&#10;&#9;&#9;c1.1,0,2.1,0.9,2.1,2v0.6l47,5c1.1,0.1,1.9,1,1.9,2.1l-0.5,26.5c33.4,34.2,30.3,44.2,28.3,50.9c-0.2,0.7-0.4,1.3-0.5,1.9&#10;&#9;&#9;c-1.4,7.1-12.2,32.9-21.1,53.4c-0.5,1.1-1.7,1.5-2.7,1.1c0,0,0,0,0,0l-26.8-11.7c-1.1-0.5-1.5-1.7-1.1-2.8&#10;&#9;&#9;c6.1-14.2,13.9-32.8,17.4-42c-5.6-8.1-20.2-32.5-23.3-37.8l-17.6-0.8c0.2,22.8-0.3,37-1.5,42.1c-2.1,9.7-14.8,28.5-37.6,55.9&#10;&#9;&#9;C133.2,429.3,132.6,429.5,132,429.5z M112.5,408.4l19.3,16.1c21-25.3,33.5-43.9,35.4-52.5c0.8-3.4,1.6-13.8,1.4-43.4&#10;&#9;&#9;c0-0.6,0.2-1.1,0.6-1.5c0.4-0.4,1-0.6,1.6-0.6l21,1c0.7,0,1.3,0.4,1.7,1c0.2,0.3,19,31.8,24.4,39.3c0.4,0.6,0.5,1.3,0.3,1.9&#10;&#9;&#9;c-3.1,8.5-10.8,26.9-17.1,41.4l23,10c11.8-27.2,19.1-45.6,20-50.6c0.2-0.8,0.4-1.5,0.6-2.3c1.6-5.4,4.4-14.4-27.9-47.4&#10;&#9;&#9;c-0.4-0.4-0.6-0.9-0.6-1.5l0.5-25.5l-47-4.9c-1-0.1-1.8-1-1.9-2v-0.3l-16,0.5h-0.2l-8.1,7.4c0.9,33.6,0.4,64.7-0.8,71.7&#10;&#9;&#9;c0,0.1-0.1,0.3-0.1,0.4C140.3,372.8,125.4,392.7,112.5,408.4L112.5,408.4z"/>
	<path class="st2_under-constructions-31 targetColor" d="M280.4,310.4c0,0-10.2-81.8-31.9-90.3c-23.5-9.2-50.1-18.3-50.1-18.3c-2.7-0.8-74.8-29.4-90.3-2.5&#10;&#9;&#9;c-7,12.2-5.9,22.6-3.7,29.1c5.4,16.2,21.9,23.8,23.8,24.6l14.2-24.8c-2.7-1.3-14.5-8.4-9.2-13.8c5.2-5.4,30,4.4,30,4.4l-16.4,54.3&#10;&#9;&#9;l79.8,23.4l12.8-38.9l13.8,63.1L280.4,310.4z" style="fill: rgb(104, 225, 253);"/>
	<path class="st1_under-constructions-31" d="M253.1,323c-0.3,0-0.7-0.1-1-0.2c-0.5-0.3-0.9-0.8-1.1-1.4l-12.2-55.6l-10.4,31.6c-0.3,1.1-1.5,1.7-2.6,1.4&#10;&#9;&#9;L146,275.3c-1.1-0.3-1.7-1.5-1.4-2.6l15.9-52.4c-10.9-4.1-23.5-6.8-26-4.2c-0.6,0.5-0.8,1.2-0.7,1.9c0.6,3.2,6.9,7.3,9.3,8.4&#10;&#9;&#9;c1,0.5,1.5,1.7,1,2.8c0,0.1-0.1,0.1-0.1,0.2l-14.1,24.8c-0.5,0.9-1.7,1.3-2.6,0.9c-2-0.9-19.3-8.8-24.9-25.9&#10;&#9;&#9;c-2.3-6.9-3.5-17.9,3.9-30.8c13.3-23.1,62.8-9.3,91.2,1l1.4,0.5c0.4,0.1,27,9.2,50.3,18.4c22.6,8.9,32.8,88.6,33.2,92&#10;&#9;&#9;c0.1,1-0.4,1.9-1.3,2.2l-27.3,10.5C253.6,322.9,253.3,323,253.1,323z M239.2,255.7h0.1c0.9,0.1,1.7,0.7,1.9,1.6l13.3,60.8l23.5-9&#10;&#9;&#9;c-3.1-23.5-14-80.5-30.4-87c-23.2-9.1-49.8-18.2-50-18.3s-0.7-0.2-1.6-0.6c-46.2-16.8-77.6-17.8-86.2-2.8&#10;&#9;&#9;c-6.6,11.6-5.6,21.3-3.6,27.5c4.3,13,16.3,20.2,20.9,22.6l12.2-21.2c-3.1-1.8-8.8-5.8-9.7-10.4c-0.4-2.1,0.3-4.2,1.8-5.6&#10;&#9;&#9;c1-1.1,7.5-5.9,32.3,3.9c1,0.4,1.6,1.5,1.2,2.6l-15.8,52.2l75.9,22.2l12.2-37C237.6,256.3,238.3,255.7,239.2,255.7L239.2,255.7z"/>
	<path class="st0_under-constructions-31" d="M205.4,199.8l15,3.9l0,0l-3.1,11.9c-0.4,1.7-2.2,2.7-3.8,2.3l-8.9-2.3c-1.7-0.4-2.7-2.2-2.3-3.8L205.4,199.8&#10;&#9;&#9;L205.4,199.8z"/>
	<path class="st1_under-constructions-31" d="M211.9,219.3c-0.7,0-1.5-0.1-2.2-0.3l0,0l-2.3-0.6c-4.6-1.2-7.4-5.9-6.2-10.5c0,0,0,0,0,0l2.2-8.6&#10;&#9;&#9;c0.3-1.1,1.4-1.8,2.5-1.5c0,0,0,0,0,0l15,3.9c1.1,0.3,1.8,1.4,1.5,2.5c0,0,0,0,0,0l-2.2,8.6C219.2,216.6,215.8,219.3,211.9,219.3&#10;&#9;&#9;L211.9,219.3z M210.7,215c1.2,0.3,2.4,0.1,3.4-0.5c1-0.6,1.8-1.6,2.1-2.8l1.7-6.6l-10.9-2.8l-1.7,6.6c-0.3,1.2-0.1,2.4,0.5,3.4&#10;&#9;&#9;c0.6,1,1.6,1.8,2.8,2.1L210.7,215z"/>
	<ellipse transform="matrix(0.25 -0.9682 0.9682 0.25 30.5771 382.4411)" class="st0_under-constructions-31" cx="262.2" cy="171.5" rx="13" ry="11.6"/>
	<path class="st1_under-constructions-31" d="M261.5,186.4c-1.1,0-2.1-0.1-3.1-0.4c-3.6-1-6.7-3.4-8.3-6.8c-3.6-7.2-1.3-15.9,5.3-20.5&#10;&#9;&#9;c3.1-2.1,6.9-2.8,10.6-1.9c7.3,1.9,11.6,10,9.5,18l0,0C273.6,181.8,267.8,186.4,261.5,186.4z M262.8,160.7c-1.8,0-3.6,0.6-5.1,1.6&#10;&#9;&#9;c-4.8,3.4-6.5,9.8-3.9,15.1c1.1,2.3,3.2,4,5.7,4.7c5.1,1.3,10.4-2.4,11.9-8.2l0,0c1.5-5.8-1.4-11.6-6.5-12.9&#10;&#9;&#9;C264.2,160.8,263.5,160.7,262.8,160.7z M273.4,174.4L273.4,174.4z"/>
	<path class="st0_under-constructions-31" d="M187.2,108.7c-4,12.4-10.5,34.2-9.6,46.7c1.7,21.5,14.6,44.8,33.9,49.8c15.5,4.3,32.1-1,42.4-13.4&#10;&#9;&#9;c4.8-5.8,8.3-12.6,10.1-19.9c0,0,2.6-4.8,6.8-25.2s6.1-31-30.8-47.2C211.5,87,191.2,96.3,187.2,108.7z"/>
	<path class="st1_under-constructions-31" d="M222.5,208.6c-3.9,0-7.8-0.5-11.5-1.5c-15.9-4.2-33.2-23.2-35.4-51.6c-0.7-9.4,2.4-25,9.7-47.5&#10;&#9;&#9;c1.8-5.6,6.4-10.4,13-13.3s21-6.6,42.7,2.8c38.7,16.9,36.2,29.2,32.1,49.5c-3.7,18.1-6.3,24.2-6.9,25.5&#10;&#9;&#9;c-1.9,7.5-5.5,14.6-10.5,20.6C247.4,202.9,235.3,208.7,222.5,208.6z M214.4,95.6c-5-0.1-9.9,0.9-14.5,2.8&#10;&#9;&#9;c-5.5,2.5-9.2,6.3-10.7,10.8c-2.6,8.1-10.5,32.7-9.5,45.9c1.5,19.6,13.4,43,32.3,47.9c14.8,4,30.5-0.9,40.3-12.7&#10;&#9;&#9;c4.6-5.6,7.9-12.1,9.7-19.1c0-0.2,0.1-0.3,0.2-0.5c0,0,2.6-5.1,6.6-24.6c4.1-20.1,6-29.3-29.6-44.8C231.4,97.8,223,95.8,214.4,95.6&#10;&#9;&#9;L214.4,95.6z"/>
	<path class="st3_under-constructions-31" d="M240.1,177.5c-4.6-3-18.1-8.3-26.3-6.6c-10.7,2.2-8.2,11.1-15,6.6c-4.7-3.1-6.1-4-7.9-9.4&#10;&#9;&#9;c-2.4-7.1,1-14.9,2.5-21.9c0.7-2.5,1-5,0.7-7.6c-0.7-4.2-3.8-7.5-7.9-8.6c-14.1-3.3-13.8,17-14.9,25.6l6.1,1.6l-1.4,4.9&#10;&#9;&#9;c1.7,21.5,16.3,38.1,35.6,43.1c15.5,4.3,32.1-1,42.4-13.4c-1.9-0.1-3.9-0.4-5.8-0.8c-5.4-1.2-1.4-5.1-4.7-10.1&#10;&#9;&#9;C242.5,179.5,241.4,178.4,240.1,177.5z"/>
	<path class="st1_under-constructions-31" d="M222.5,208.6c-3.9,0-7.8-0.5-11.5-1.5c-20.9-5.4-35.5-23-37.2-44.9c0-0.3,0-0.5,0.1-0.8l0.8-2.8l-4-1&#10;&#9;&#9;c-1-0.3-1.7-1.3-1.6-2.3c0.1-1.1,0.3-2.5,0.4-4c0.7-7.5,1.7-17.7,7.6-21.9c2.6-1.8,5.8-2.3,9.5-1.4c4.9,1.2,8.6,5.3,9.4,10.3&#10;&#9;&#9;c0.3,2.8,0,5.6-0.8,8.3c-0.4,1.6-0.8,3.2-1.2,4.8c-1.5,5.4-3,11-1.4,16c1.6,4.7,2.5,5.3,6.9,8.2l0.2,0.1c2,1.3,1.9,1.3,3.4-0.6&#10;&#9;&#9;c2.4-3.3,6-5.6,10-6.3c8.7-1.8,22.8,3.5,27.8,6.9l0,0c1.6,1,2.9,2.3,4,3.9c1.3,2,1.9,4.4,1.9,6.8c0.1,2.1,0.1,2.1,1.6,2.4&#10;&#9;&#9;c1.8,0.4,3.7,0.6,5.5,0.7c0.8,0.1,1.5,0.6,1.8,1.3c0.3,0.7,0.2,1.6-0.3,2.1C247.4,202.9,235.3,208.6,222.5,208.6z M178,162.3&#10;&#9;&#9;c1.7,19.9,15,35.9,34,40.8c13.4,3.7,27.6-0.1,37.5-9.8c-0.7-0.1-1.3-0.2-1.9-0.4c-4.7-1-4.8-4.1-4.8-6.4c0.1-1.7-0.3-3.3-1.2-4.7&#10;&#9;&#9;c-0.7-1.1-1.7-2-2.8-2.7l0,0c-4.6-3.1-17.5-7.8-24.7-6.3c-3.1,0.5-5.8,2.3-7.6,4.9c-1.6,2-3.9,4.8-9,1.4l-0.2-0.1&#10;&#9;&#9;c-4.6-3.1-6.6-4.4-8.6-10.4s-0.3-12.6,1.3-18.4c0.4-1.6,0.9-3.1,1.2-4.6c0.6-2.2,0.9-4.5,0.7-6.8c-0.6-3.3-3-6-6.3-6.8&#10;&#9;&#9;c-2.5-0.6-4.5-0.3-6.1,0.8c-4.4,3.1-5.3,12.6-5.9,18.9c-0.1,0.8-0.1,1.6-0.2,2.3l4.3,1.1c1.1,0.3,1.8,1.4,1.5,2.5c0,0,0,0.1,0,0.1&#10;&#9;&#9;L178,162.3z"/>
	<ellipse transform="matrix(0.25 -0.9682 0.9682 0.25 13.3424 321.2565)" class="st1_under-constructions-31" cx="214.1" cy="152" rx="4.2" ry="4.2"/>
	<circle class="st1_under-constructions-31" cx="248.4" cy="161.4" r="4.2"/>
	<path class="st1_under-constructions-31" d="M231.3,169.2H231c-3.5-0.5-7-1.3-10.3-2.6c-1.1-0.4-1.6-1.6-1.2-2.7c0.4-1.1,1.6-1.6,2.7-1.2l0,0&#10;&#9;&#9;c2.7,1.1,5.6,1.8,8.5,2.3c0.1-1.6-1-5.8-2.5-9.5c-0.5-1,0-2.3,1-2.8c1-0.5,2.3,0,2.8,1c0,0.1,0.1,0.1,0.1,0.2c1.6,4,4.1,11.1,2,14&#10;&#9;&#9;C233.4,168.8,232.4,169.3,231.3,169.2z"/>
	<path class="st1_under-constructions-31" d="M219.3,145c0,0-1.2-2.3-6.1-3.6c-4.1-1.1-6,1-6.3,1.4c-1.3,1.9-3.9,2.3-5.7,1c0,0,0,0-0.1,0&#10;&#9;&#9;c-1.9-1.3-2.3-4-1-5.9c0,0,0,0,0,0c1.9-2.7,7.3-6.7,15.2-4.6c9.4,2.5,11.6,8.2,11.9,8.9L219.3,145z"/>
	<path class="st1_under-constructions-31" d="M260.6,157.2L260.6,157.2c-2.3,0-4-1.7-4.2-3.9c-0.1-0.4-0.8-1.1-2.7-1.7c-2.5-0.7-5.1-0.5-7.5,0.5&#10;&#9;&#9;c-2.1,1-4.6,0.2-5.6-1.9c-1-2-0.2-4.5,1.8-5.5c4.3-2.1,9.2-2.4,13.8-1.1c6.9,2.1,8.7,7,8.6,9.5&#10;&#9;&#9;C264.8,155.4,262.9,157.3,260.6,157.2z M256.4,153L256.4,153z"/>
	<path class="st0_under-constructions-31" d="M187,143.7c0,0-8.8-10.2-17.1-2.1s-6.9,25.8,12.1,25.6L187,143.7z"/>
	<path class="st1_under-constructions-31" d="M181.8,169.4c-8.6,0-14.9-3.6-17.5-9.9c-2.6-6.7-0.9-14.3,4.2-19.4c2.3-2.4,5.5-3.8,8.9-3.7&#10;&#9;&#9;c6.2,0.3,11,5.7,11.2,6c0.4,0.5,0.6,1.2,0.5,1.8l-5,23.5c-0.2,0.9-1,1.6-2,1.7L181.8,169.4z M176.8,140.6c-2.1,0.1-4.1,1-5.5,2.5&#10;&#9;&#9;c-3.9,3.9-5.2,9.6-3.3,14.8c1.8,4.4,6.1,6.9,12.2,7.3l4.4-20.7c-1.3-1.2-4.3-3.7-7.6-3.8L176.8,140.6z"/>
	<path class="st4_under-constructions-31" d="M212.8,180l15.2,3.7c0,0-4.6,12-11,11.2S212.8,180,212.8,180z"/>
	<path class="st1_under-constructions-31" d="M217.7,197.1c-0.3,0-0.6,0-0.9-0.1c-1.7-0.2-3.2-1.1-4.2-2.5c-3.4-4.5-2-13.8-1.8-14.9&#10;&#9;&#9;c0.1-0.6,0.4-1.1,0.9-1.4c0.5-0.3,1.1-0.4,1.6-0.3l15.2,3.7c1.1,0.3,1.8,1.4,1.5,2.5c0,0.1,0,0.2-0.1,0.3&#10;&#9;&#9;C229.5,185.8,225,197.1,217.7,197.1z M214.7,182.6c-0.3,3.3-0.1,7.6,1.3,9.4c0.3,0.5,0.8,0.8,1.4,0.8c3.1,0.4,6.2-4.4,7.8-7.7&#10;&#9;&#9;L214.7,182.6z"/>
	<path class="st5_under-constructions-31" d="M278.3,131.6l-93.6-25.2l0,0l3.2-12c5.7-21.2,27.5-33.7,48.7-28l0,0l16.9,4.5c21.2,5.7,33.7,27.5,28,48.7l0,0&#10;&#9;&#9;L278.3,131.6L278.3,131.6z"/>
	<path class="st1_under-constructions-31" d="M278.3,133.7c-0.2,0-0.4,0-0.5-0.1l-93.6-25.2c-1.1-0.3-1.8-1.5-1.5-2.6l3-11.3c6.1-22.7,29.5-36.1,52.1-30&#10;&#9;&#9;l15.4,4.2c22.7,6.1,36.1,29.5,30,52.1l-3,11.3C280.1,133.1,279.3,133.7,278.3,133.7L278.3,133.7z M187.3,105l89.5,24.1l2.5-9.3&#10;&#9;&#9;c5.5-20.4-6.6-41.5-27.1-47l0,0l-15.4-4.2c-20.5-5.5-41.5,6.6-47,27.1L187.3,105z"/>
	<path class="st5_under-constructions-31" d="M280.5,151l-107.3-28.9c-2.3-0.6-3.7-3-3.1-5.3l2.5-9.1c0.6-2.3,3-3.7,5.3-3.1l107.3,28.9&#10;&#9;&#9;c2.3,0.6,3.7,3,3.1,5.3l-2.5,9.1C285.2,150.2,282.8,151.6,280.5,151z"/>
	<path class="st1_under-constructions-31" d="M278.3,152.1c-1,0-2-0.1-2.9-0.4l-98.2-26.4l0,0c-5.9-1.6-9.5-7.7-7.9-13.7c1.6-5.9,7.7-9.5,13.6-7.9&#10;&#9;&#9;l98.2,26.4c5.9,1.6,9.5,7.7,7.8,13.7C287.7,148.8,283.3,152.1,278.3,152.1L278.3,152.1z M178.3,121.3l98.2,26.4&#10;&#9;&#9;c3.7,1,7.5-1.2,8.5-4.9c1-3.7-1.2-7.5-4.9-8.5l-98.2-26.4c-3.8-0.6-7.4,2-8,5.8C173.3,116.9,175.2,120.1,178.3,121.3L178.3,121.3z"/>
	<path class="st5_under-constructions-31" d="M245.8,122.9l-28.4-7.6l0,0l11.6-42.9c2-7.3,9.5-11.6,16.8-9.7l1.9,0.5c7.3,2,11.6,9.5,9.7,16.8L245.8,122.9&#10;&#9;&#9;L245.8,122.9z"/>
	<path class="st1_under-constructions-31" d="M245.8,125c-0.2,0-0.4,0-0.5-0.1l-28.4-7.7c-0.5-0.1-1-0.5-1.3-1c-0.3-0.5-0.4-1.1-0.2-1.6l11.3-42&#10;&#9;&#9;c2.4-8.9,11.6-14.3,20.6-11.8l-0.6,2l0.6-2c9,2.4,14.3,11.6,11.9,20.6c0,0,0,0,0,0l-11.3,42C247.5,124.3,246.7,125,245.8,125z&#10;&#9;&#9; M219.9,113.8l24.4,6.6l10.7-40c1.8-6.7-2.2-13.6-8.9-15.4l0,0c-6.7-1.8-13.6,2.2-15.4,8.9c0,0,0,0,0,0L219.9,113.8z"/>
	<path class="st6_under-constructions-31" d="M203.5,246.1c0,0,16.7-5.1,27.7-36.9l11.5,3.8c0,0-20.1,38.4-6.7,57.4l-17.9,49.1c0,0-77-26.6-76.8-25.8&#10;&#9;&#9;s10.9-48.3,10.9-48.3s12.7-10.2,19.1-18.9s14.4-27.8,14.4-27.8l12.6,3.1C198.3,201.8,188.1,229.3,203.5,246.1z"/>
	<path class="st1_under-constructions-31" d="M218.1,321.5c-0.2,0-0.5,0-0.7-0.1c-28.5-9.9-71.7-24.6-76.1-25.6l0,0c-1.2,0-2.1-0.9-2.1-2.1&#10;&#9;&#9;c0-0.4,0.1-0.7,0.3-1c0.9-3.1,6.8-30,10.6-47.7c0.1-0.5,0.4-0.9,0.7-1.2c0.1-0.1,12.6-10.1,18.8-18.5s14-27.2,14.1-27.4&#10;&#9;&#9;c0.4-1,1.4-1.5,2.4-1.2l12.6,3.1c1.1,0.3,1.8,1.4,1.5,2.5c0,0.1,0,0.2-0.1,0.2c-0.1,0.2-9.2,25.4,3.8,41.1&#10;&#9;&#9;c3.9-1.9,16.4-9.7,25.1-35c0.4-1.1,1.5-1.7,2.6-1.3l11.5,3.7c0.6,0.2,1.1,0.6,1.3,1.2c0.2,0.6,0.2,1.2-0.1,1.8&#10;&#9;&#9;c-0.2,0.4-19.4,37.5-6.9,55.3c0.4,0.6,0.5,1.3,0.2,1.9l-17.9,49.1C219.7,321,219,321.5,218.1,321.5z M143.9,292.2&#10;&#9;&#9;c4.3,1.1,14,4.4,36.7,12.2c15.5,5.3,30.9,10.6,36.2,12.4l16.8-46.1c-11.1-17.5,2.1-48,6.2-56.5l-7.3-2.4&#10;&#9;&#9;c-11.2,30.7-27.7,36-28.4,36.2c-0.8,0.2-1.6,0-2.1-0.6c-13.7-14.9-8.5-37.1-6.3-44.2l-8.7-2.1c-2.1,4.9-8.4,19.2-13.9,26.6&#10;&#9;&#9;c-5.8,7.8-16.3,16.7-18.9,18.8c-0.6,2.8-2.8,13.1-5.1,23.4C146.2,282.5,144.8,288.9,143.9,292.2z"/>
	<path class="st1_under-constructions-31" d="M230.8,286.6c-0.4,0-0.7-0.1-1.1-0.3l-33.2-19.5l-47.4-2.2c-1.2,0-2-1-2-2.2c0,0,0,0,0,0c0.1-1.2,1-2,2.2-2&#10;&#9;&#9;l47.9,2.2c0.4,0,0.7,0.1,1,0.3l33.6,19.8c1,0.6,1.3,1.9,0.7,2.9C232.2,286.2,231.6,286.6,230.8,286.6L230.8,286.6z"/>
	<path class="st1_under-constructions-31" d="M224.8,303.2c-0.4,0-0.7-0.1-1.1-0.3l-33.1-19.5l-44.9-1.2c-1.1,0-2-1-2-2.1c0.1-1.1,1-2,2.1-2l45.4,1.2&#10;&#9;&#9;c0.4,0,0.7,0.1,1,0.3l33.6,19.8c1,0.6,1.3,1.9,0.7,2.9C226.3,302.9,225.6,303.2,224.8,303.2L224.8,303.2z"/>
	<path class="st1_under-constructions-31" d="M183.1,308.6c-0.2,0-0.5,0-0.7-0.1c-1.1-0.4-1.7-1.6-1.3-2.6c0,0,0,0,0,0l20.4-60.5c0.4-1.1,1.6-1.7,2.7-1.3&#10;&#9;&#9;s1.7,1.6,1.3,2.7l-20.4,60.5C184.8,308.1,184,308.7,183.1,308.6z"/>
	<path class="st4_under-constructions-31" d="M323.2,343.3l23.1,16.6c7.9,5.7,9.8,16.7,4.1,24.6l0,0l-6.1,8.5c-5.7,8-16.7,9.8-24.6,4.2c0,0,0,0-0.1,0&#10;&#9;&#9;l-23.1-16.6c-3.6-2.6-4.4-7.5-1.8-11.1l17.4-24.3C314.6,341.6,319.6,340.8,323.2,343.3z"/>
	<path class="st1_under-constructions-31" d="M328.5,403.5c-4.7,0-9.2-1.5-13-4.2l-27.6-19.9c-0.9-0.7-1.2-2-0.5-2.9c0,0,0,0,0,0l26.8-37.3&#10;&#9;&#9;c0.7-0.9,2-1.1,2.9-0.5l27.6,19.9c10,7.2,12.3,21.2,5.1,31.3l-3.1,4.3C342.5,400.1,335.7,403.6,328.5,403.5z M292,377.3l25.9,18.7&#10;&#9;&#9;c8.2,5.9,19.5,4,25.4-4.1l3.1-4.3c5.9-8.2,4.1-19.6-4.1-25.5c0,0-0.1,0-0.1-0.1l-25.9-18.6L292,377.3z"/>
	
		<rect x="242.7" y="235.7" transform="matrix(0.5838 -0.8119 0.8119 0.5838 -156.2353 332.366)" class="st1_under-constructions-31" width="6.7" height="165.9"/>
	<path class="st1_under-constructions-31" d="M311.4,371.8c-0.4,0-0.9-0.1-1.2-0.4l-134.7-96.8c-0.9-0.7-1.1-2-0.5-2.9l3.9-5.5c0.3-0.5,0.8-0.8,1.4-0.8&#10;&#9;&#9;c0.5-0.1,1.1,0,1.6,0.4l134.6,96.8c0.9,0.7,1.1,2,0.5,2.9l-3.9,5.5c-0.3,0.5-0.8,0.8-1.4,0.8L311.4,371.8z M179.7,272.4l131.2,94.4&#10;&#9;&#9;l1.5-2.1l-131.2-94.4L179.7,272.4z"/>
	<path class="st4_under-constructions-31" d="M334.4,384.3l-38.2-22.1l7.1-9.9l33.1,29.2c0.7,0.6,0.8,1.7,0.2,2.4C336,384.5,335.1,384.7,334.4,384.3z"/>
	<path class="st1_under-constructions-31" d="M335.2,386.6c-0.7,0-1.4-0.2-1.9-0.5L295.1,364c-0.5-0.3-0.9-0.8-1-1.4c-0.1-0.6,0-1.2,0.4-1.6l7.1-9.9&#10;&#9;&#9;c0.3-0.5,0.9-0.8,1.5-0.9c0.6-0.1,1.2,0.1,1.6,0.5l33.1,29.2c1.6,1.4,1.7,3.8,0.3,5.4C337.3,386.1,336.3,386.6,335.2,386.6z&#10;&#9;&#9; M335.4,382.5l-1,1.8L335.4,382.5z M299.2,361.5l33,19.1l-28.6-25.2L299.2,361.5z"/>
	<polyline class="st4_under-constructions-31" points="163.2,265 176.6,274.6 182.3,266.7 168.9,257.1 &#9;"/>
	<path class="st1_under-constructions-31" d="M176.6,276.7c-0.4,0-0.9-0.1-1.2-0.4l-13.4-9.6c-1-0.6-1.2-1.9-0.6-2.9c0.6-1,1.9-1.2,2.9-0.6&#10;&#9;&#9;c0,0,0.1,0.1,0.1,0.1l11.7,8.4l3.2-4.5l-11.7-8.4c-1-0.6-1.2-1.9-0.6-2.9c0.6-1,1.9-1.2,2.9-0.6c0,0,0.1,0.1,0.1,0.1l13.4,9.6&#10;&#9;&#9;c1,0.6,1.2,1.9,0.6,2.9c0,0-0.1,0.1-0.1,0.1l-5.7,7.9c-0.3,0.5-0.8,0.8-1.4,0.8C176.9,276.7,176.7,276.7,176.6,276.7z"/>
	<path class="st4_under-constructions-31" d="M144.2,267.4l-4.7-3.4c-1.3-1-1.6-2.8-0.7-4.2l17.4-24.2c1-1.3,2.8-1.6,4.2-0.7l4.6,3.3&#10;&#9;&#9;c7.9,5.9,9.5,17.2,3.5,25.1C162.9,271,152.1,272.8,144.2,267.4L144.2,267.4z M145.4,260.9l2.2,1.6c5.4,3.7,12.9,2.3,16.6-3.1&#10;&#9;&#9;c3.6-5.3,2.4-12.4-2.7-16.2l-2.2-1.6L145.4,260.9z"/>
	<path class="st1_under-constructions-31" d="M154.6,272.8c-4.2,0-8.2-1.3-11.6-3.8l-4.7-3.4c-2.3-1.6-2.8-4.8-1.2-7.1c0,0,0,0,0,0l17.4-24.2&#10;&#9;&#9;c1.6-2.3,4.8-2.8,7.1-1.2l4.6,3.4c9,6.5,11,19,4.5,27.9c-3.1,4.3-7.8,7.2-13,8C156.8,272.7,155.7,272.8,154.6,272.8z M158.7,236.5&#10;&#9;&#9;c-0.3,0-0.6,0.1-0.7,0.4l-17.4,24.2c-0.3,0.4-0.2,1,0.2,1.2c0,0,0,0,0,0l4.7,3.4l0,0c7.1,5.1,17,3.5,22.1-3.6&#10;&#9;&#9;c5.1-7.1,3.5-17-3.6-22.1l-4.6-3.4C159.1,236.5,158.9,236.5,158.7,236.5L158.7,236.5z M154.6,266.9c-2.9,0-5.8-0.9-8.1-2.6&#10;&#9;&#9;l-2.2-1.6c-0.5-0.3-0.8-0.8-0.8-1.4c-0.1-0.5,0-1.1,0.4-1.6l13.9-19.4c0.7-0.9,2-1.1,2.9-0.5c0,0,0,0,0,0l2.2,1.6&#10;&#9;&#9;c6.3,4.5,7.7,13.3,3.2,19.5c0,0,0,0,0,0C163.3,264.7,159.1,266.8,154.6,266.9L154.6,266.9z M148.4,260.4l0.5,0.4&#10;&#9;&#9;c4.4,3.2,10.6,2.2,13.8-2.2s2.2-10.6-2.2-13.8l0,0l-0.5-0.4L148.4,260.4z"/>
	<path class="st0_under-constructions-31" d="M147.7,232.1l13.7,8.4c0.7,0.4,0.9,1.3,0.5,2l-2,3.2c-0.4,0.7-1.3,0.9-2,0.5l-13.7-8.4c-0.7-0.4-0.9-1.3-0.5-2&#10;&#9;&#9;l2-3.2C146.1,231.9,147,231.6,147.7,232.1z"/>
	<path class="st1_under-constructions-31" d="M158.2,247.9c-1,0-1.9-0.3-2.7-0.8l0,0l-11-6.7c-2.4-1.5-3.2-4.7-1.7-7.1c0,0,0,0,0,0l0.3-0.4&#10;&#9;&#9;c1.5-2.4,4.7-3.2,7.1-1.7c0,0,0,0,0,0l11,6.7c2.4,1.5,3.2,4.7,1.7,7.1l-0.3,0.4C161.7,247,160,247.9,158.2,247.9z M157.7,243.6&#10;&#9;&#9;c0.5,0.3,1.1,0.2,1.4-0.3c0,0,0,0,0,0l0.3-0.4c0.1-0.2,0.2-0.5,0.1-0.8c-0.1-0.3-0.2-0.5-0.4-0.6l-11-6.7c-0.5-0.3-1.1-0.2-1.4,0.3&#10;&#9;&#9;c0,0,0,0,0,0l-0.3,0.4c-0.1,0.2-0.2,0.5-0.1,0.8c0.1,0.3,0.2,0.5,0.4,0.6L157.7,243.6z"/>
	<path class="st0_under-constructions-31" d="M168.9,247.7l-9.2,13.2c-0.5,0.7-1.4,0.8-2.1,0.4l-3.1-2.1c-0.7-0.5-0.8-1.4-0.4-2.1l9.2-13.2&#10;&#9;&#9;c0.5-0.7,1.4-0.8,2.1-0.4l3.1,2.1C169.2,246.1,169.4,247,168.9,247.7z"/>
	<path class="st1_under-constructions-31" d="M158.1,263c-1.1,0-2.1-0.3-2.9-0.9l-0.4-0.3c-1.1-0.8-1.9-2-2.2-3.3c-0.3-1.4,0-2.8,0.8-3.9l7.3-10.6&#10;&#9;&#9;c1.6-2.4,4.8-3,7.2-1.3c0,0,0,0,0.1,0l0.4,0.3c2.4,1.6,3,4.9,1.3,7.2c0,0,0,0,0,0l-7.3,10.6C161.5,262.2,159.9,263,158.1,263&#10;&#9;&#9;L158.1,263z M165,246c-0.3,0-0.6,0.2-0.8,0.4l-7.3,10.6l0,0c-0.2,0.2-0.2,0.5-0.2,0.8c0,0.3,0.2,0.5,0.4,0.6l0.4,0.3&#10;&#9;&#9;c0.5,0.3,1.1,0.2,1.4-0.2c0,0,0,0,0,0l7.3-10.6c0.2-0.2,0.2-0.5,0.2-0.8c0-0.3-0.2-0.5-0.4-0.6l-0.4-0.3&#10;&#9;&#9;C165.4,246.1,165.2,246,165,246z M155.1,255.8L155.1,255.8z"/>
	<path class="st0_under-constructions-31" d="M144.2,237.8l13.7,8.4c0.7,0.4,0.9,1.3,0.5,2l-2,3.2c-0.4,0.7-1.3,0.9-2,0.5l-13.7-8.4c-0.7-0.4-0.9-1.3-0.5-2&#10;&#9;&#9;l2-3.2C142.6,237.6,143.5,237.4,144.2,237.8z"/>
	<path class="st1_under-constructions-31" d="M154.6,253.7c-1,0-1.9-0.3-2.7-0.8l-10.9-6.7c-2.4-1.5-3.2-4.7-1.7-7.1c0,0,0,0,0,0l0.3-0.4&#10;&#9;&#9;c1.5-2.4,4.7-3.2,7.1-1.7l11,6.7c2.4,1.5,3.2,4.7,1.7,7.1l-0.3,0.4c-0.7,1.2-1.9,2-3.2,2.3C155.5,253.6,155.1,253.7,154.6,253.7z&#10;&#9;&#9; M144,240.3c-0.4,0-0.7,0.2-0.9,0.5l-0.3,0.4c-0.1,0.2-0.2,0.5-0.1,0.8c0.1,0.3,0.2,0.5,0.4,0.6l10.9,6.7l0,0&#10;&#9;&#9;c0.2,0.1,0.5,0.2,0.8,0.1c0.3-0.1,0.5-0.2,0.6-0.5l0.3-0.4c0.1-0.2,0.2-0.5,0.1-0.8c-0.1-0.3-0.2-0.5-0.4-0.6l-11-6.7&#10;&#9;&#9;C144.3,240.3,144.2,240.3,144,240.3z"/>
	<path class="st0_under-constructions-31" d="M140.7,243.5l13.7,8.4c0.7,0.4,0.9,1.3,0.5,2l-2,3.2c-0.4,0.7-1.3,0.9-2,0.5l-13.7-8.4c-0.7-0.4-0.9-1.3-0.5-2&#10;&#9;&#9;l2-3.2C139.1,243.3,140,243.1,140.7,243.5z"/>
	<path class="st1_under-constructions-31" d="M151.1,259.4c-1,0-1.9-0.3-2.7-0.8l0,0l-10.9-6.7c-2.4-1.5-3.2-4.7-1.7-7.1l0.3-0.4c1.5-2.4,4.7-3.2,7.1-1.7&#10;&#9;&#9;c0,0,0,0,0,0l10.9,6.7c2.4,1.5,3.2,4.7,1.7,7.1l-0.3,0.4C154.6,258.5,152.9,259.4,151.1,259.4z M150.6,255.1&#10;&#9;&#9;c0.5,0.3,1.1,0.1,1.4-0.3c0,0,0,0,0,0l0.3-0.4c0.3-0.5,0.1-1.1-0.3-1.4c0,0,0,0,0,0l-10.9-6.7c-0.5-0.3-1.1-0.2-1.4,0.3&#10;&#9;&#9;c0,0,0,0,0,0l-0.3,0.4c-0.3,0.5-0.2,1.1,0.3,1.4c0,0,0,0,0,0L150.6,255.1z"/>
	<path class="st0_under-constructions-31" d="M137.2,249.3l13.7,8.4c0.7,0.4,0.9,1.3,0.5,2l-2,3.2c-0.4,0.7-1.3,0.9-2,0.5l-13.7-8.4c-0.7-0.4-0.9-1.3-0.5-2&#10;&#9;&#9;l2-3.2C135.6,249.1,136.5,248.8,137.2,249.3z"/>
	<path class="st1_under-constructions-31" d="M147.6,265.1c-1,0-1.9-0.3-2.7-0.8l0,0l-11-6.7c-2.4-1.5-3.2-4.7-1.7-7.1c0,0,0,0,0,0l0.3-0.4&#10;&#9;&#9;c1.5-2.4,4.7-3.2,7.1-1.7l11,6.7c1.2,0.7,2,1.9,2.3,3.2c0.3,1.3,0.1,2.8-0.6,3.9l-0.3,0.4C151.1,264.2,149.4,265.1,147.6,265.1z&#10;&#9;&#9; M147.1,260.8c0.5,0.3,1.1,0.1,1.4-0.3c0,0,0,0,0,0l0.3-0.4c0.1-0.2,0.2-0.5,0.1-0.8c-0.1-0.3-0.2-0.5-0.4-0.6l-10.9-6.7&#10;&#9;&#9;c-0.2-0.1-0.5-0.2-0.8-0.1c-0.3,0.1-0.5,0.2-0.6,0.5l-0.3,0.4c-0.3,0.5-0.2,1.1,0.3,1.4c0,0,0,0,0,0L147.1,260.8z"/>
	<path class="st0_under-constructions-31" d="M287.1,327c0,0,5.8,9.5,4,12.2s-12.5,6.4-14.3,4.1c-2.4-3.2,4.7-6.9,4.7-6.9s-5.1-1.8-4.8-6.6"/>
	<path class="st1_under-constructions-31" d="M279,346.1c-1.5,0.1-2.9-0.4-3.9-1.5c-0.8-1-1.1-2.4-0.8-3.7c0.6-1.8,1.7-3.4,3.3-4.5c-2-1.7-3.1-4.2-2.9-6.8&#10;&#9;&#9;c0.1-1.2,1.1-2,2.2-1.9c1.2,0.1,2,1.1,1.9,2.2c-0.2,3.2,3.2,4.4,3.4,4.5c1.1,0.4,1.7,1.6,1.3,2.7c-0.2,0.5-0.5,0.9-1,1.1&#10;&#9;&#9;c-1.8,0.9-3.9,2.6-4.1,3.6c0,0,0,0,0,0.1c2,0.5,9.8-2.1,11-3.9c0.3-1.1-1.6-5.8-4-9.9c-0.6-1-0.3-2.3,0.7-2.9s2.3-0.3,2.9,0.7&#10;&#9;&#9;c2.4,4,6.1,11.1,3.9,14.4c-1.9,2.8-9.3,5.6-13.5,5.7L279,346.1z"/>
	<path class="st1_under-constructions-31" d="M239.2,259.9c-0.2,0-0.5,0-0.7-0.1c-1.1-0.4-1.6-1.6-1.3-2.7l6.8-18.8c0.4-1.1,1.6-1.6,2.7-1.2&#10;&#9;&#9;c1,0.4,1.6,1.6,1.2,2.6l-6.8,18.8C240.9,259.3,240.1,259.9,239.2,259.9z"/>
	<line class="st7_under-constructions-31" x1="163.1" y1="219" x2="168" y2="203.3"/>
	<path class="st1_under-constructions-31" d="M163.1,221.1c-0.2,0-0.4,0-0.6-0.1c-1.1-0.3-1.7-1.5-1.4-2.6l4.9-15.7c0.3-1.1,1.5-1.7,2.6-1.4&#10;&#9;&#9;c1.1,0.3,1.7,1.5,1.4,2.6l-5,15.7C164.7,220.5,164,221.1,163.1,221.1z"/>
	<path class="st1_under-constructions-31" d="M205.1,331.7h-13.6c-1.2,0-2.1-0.9-2.1-2.1c0-1.2,0.9-2.1,2.1-2.1h13.6c1.2,0,2.1,0.9,2.1,2.1&#10;&#9;&#9;S206.3,331.7,205.1,331.7C205.1,331.7,205.1,331.7,205.1,331.7z"/>
	<polygon class="st6_under-constructions-31" points="151.7,406.7 125.8,384.5 90.5,437.6 151.7,437.6 138.3,427.4 &#9;"/>
	<path class="st1_under-constructions-31" d="M151.7,439.7H90.5c-1.2,0-2.1-0.9-2.1-2.1c0-0.4,0.1-0.8,0.3-1.1l35.3-53.1c0.3-0.5,0.9-0.8,1.5-0.9&#10;&#9;&#9;c0.6-0.1,1.2,0.1,1.6,0.5l25.9,22.1c0.8,0.7,1,1.8,0.4,2.7L141.1,427l11.9,9c0.9,0.7,1.1,2,0.4,2.9&#10;&#9;&#9;C153,439.4,152.4,439.7,151.7,439.7L151.7,439.7z M94.4,435.6h51.1l-8.5-6.4c-0.9-0.7-1.1-1.9-0.5-2.8l12.5-19.2l-22.7-19.4&#10;&#9;&#9;L94.4,435.6z"/>
	<polygon class="st6_under-constructions-31" points="237.8,405 205.6,395.7 187.9,437.6 247.5,437.6 228.7,427.6 &#9;"/>
	<path class="st1_under-constructions-31" d="M247.5,439.7h-59.7c-1.2,0-2.1-0.9-2.1-2.1c0-0.3,0.1-0.6,0.2-0.8l17.7-42c0.4-1,1.5-1.5,2.5-1.2l32.3,9.3&#10;&#9;&#9;c0.6,0.2,1,0.6,1.3,1.1c0.3,0.5,0.3,1.2,0.1,1.7l-8.4,20.8l17.1,9.2c1,0.5,1.4,1.8,0.8,2.8C249,439.3,248.3,439.7,247.5,439.7&#10;&#9;&#9;L247.5,439.7z M191,435.5h48.2l-11.4-6.1c-0.9-0.5-1.4-1.6-0.9-2.6l8.2-20.4l-28.2-8.2L191,435.5z"/>
</g>
<g id="ground_under-constructions-31">
	<path class="st3_under-constructions-31" d="M284.4,437.6c0,0,15.2-27.1,17.7-28.1s14.9-2.4,14.9-2.4s8.7-24.7,14-24.7s24.1,13.7,24.1,13.7&#10;&#9;&#9;s6.2-8.2,9.2-6.5s10.1,15.8,10.1,15.8s7.6-4.1,11.2-1.4s21.3,33.6,21.3,33.6L284.4,437.6z"/>
	<path class="st1_under-constructions-31" d="M406.9,439.7H284.4c-1.2,0-2.1-0.9-2.1-2.1c0-0.4,0.1-0.7,0.3-1c10.3-18.4,16.6-28.1,18.7-29&#10;&#9;&#9;c2.3-0.9,10.5-2,14.1-2.4c3.5-9.8,9.9-24.8,15.5-24.8c5,0,18.4,9.2,23.7,12.9c2.6-3.1,7.1-7.4,10.7-5.5c2.9,1.6,7.7,10.3,10,14.8&#10;&#9;&#9;c2.9-1.2,8.1-2.8,11.5-0.3c3.8,2.9,18.9,29,21.9,34.2c0.6,1,0.2,2.3-0.8,2.9C407.6,439.6,407.2,439.7,406.9,439.7L406.9,439.7z&#10;&#9;&#9; M288,435.5h115.2c-8.1-14-17-28.4-18.9-29.8s-7,0.5-9,1.5c-0.5,0.3-1.1,0.3-1.6,0.1c-0.5-0.2-1-0.6-1.2-1.1&#10;&#9;&#9;c-3.2-6.5-7.7-14-9.2-14.9c-0.9,0-4.2,2.8-6.6,5.9c-0.7,0.9-2,1.1-2.9,0.4c-7.6-5.5-19.7-13.3-22.9-13.3c-2.2,0.5-7.8,11.3-12,23.3&#10;&#9;&#9;c-0.3,0.8-0.9,1.3-1.7,1.4c-4.5,0.5-12.2,1.5-14.1,2.2C301.3,413,294.4,424.3,288,435.5z"/>
	<path class="st1_under-constructions-31" d="M309.1,429.8c-0.2,0-0.4,0-0.6-0.1c-1.1-0.3-1.7-1.5-1.4-2.6c0,0,0,0,0,0c1.7-5.5,7.7-20.1,7.9-20.7&#10;&#9;&#9;c0.4-1.1,1.7-1.6,2.7-1.1c1.1,0.4,1.6,1.7,1.1,2.7l0,0c-0.1,0.1-6.1,15-7.8,20.4C310.8,429.2,310,429.8,309.1,429.8z"/>
	<path class="st1_under-constructions-31" d="M441,439.7H59c-1.2,0-2.1-0.9-2.1-2.1c0-1.2,0.9-2.1,2.1-2.1c0,0,0,0,0,0h382c1.2,0,2.1,0.9,2.1,2.1&#10;&#9;&#9;S442.2,439.7,441,439.7C441,439.7,441,439.7,441,439.7z"/>
</g>
</svg>